<?xml version="1.0" standalone="no"?>
<!DOCTYPE svg PUBLIC "-//W3C//DTD SVG 20010904//EN"
 "http://www.w3.org/TR/2001/REC-SVG-20010904/DTD/svg10.dtd">
<svg version="1.0" xmlns="http://www.w3.org/2000/svg"
 width="640.000000pt" height="640.000000pt" viewBox="0 0 640.000000 640.000000"
 preserveAspectRatio="xMidYMid meet">
<metadata>
Created by potrace 1.14, written by Peter Selinger 2001-2017
</metadata>
<g transform="translate(0.000000,640.000000) scale(0.100000,-0.100000)"
fill="#000000" stroke="none">
<path d="M3688 6394 c-2 -1 -25 -5 -52 -8 -27 -4 -52 -9 -55 -10 -3 -2 -33 -7
-66 -11 -32 -3 -62 -8 -65 -10 -3 -1 -32 -6 -65 -10 -32 -3 -62 -8 -65 -10 -3
-2 -26 -6 -50 -9 -39 -6 -115 -18 -130 -21 -3 -1 -32 -5 -65 -10 -33 -5 -62
-9 -65 -10 -3 -1 -44 -7 -92 -15 l-88 -13 0 -473 0 -474 -27 12 c-72 28 -192
-10 -257 -82 -42 -47 -52 -80 -40 -129 33 -130 272 -86 343 64 20 44 21 57 21
510 0 436 1 465 18 466 21 2 44 5 97 14 22 3 51 8 65 10 14 2 95 16 180 30
154 26 186 30 258 40 20 3 48 7 62 10 14 3 42 8 64 11 21 3 47 7 57 9 22 4 20
53 20 -445 0 -170 -1 -325 -1 -344 0 -34 0 -34 -32 -25 -49 14 -82 11 -141
-11 -64 -24 -133 -89 -148 -141 -10 -31 -9 -43 7 -75 11 -22 30 -44 44 -51 63
-32 179 -1 247 66 66 63 65 52 66 619 1 283 0 517 -3 521 -5 7 -36 11 -42 5z"/>
<path d="M1060 5899 c-19 -17 -55 -48 -80 -68 -25 -20 -54 -45 -66 -56 -12
-11 -32 -29 -45 -39 -26 -21 -137 -115 -155 -131 -6 -5 -77 -66 -158 -133 -80
-68 -146 -126 -146 -129 0 -5 106 -184 145 -243 21 -33 228 -371 257 -420 7
-13 28 -46 46 -74 17 -28 32 -53 32 -57 0 -4 -14 -9 -32 -13 -118 -24 -214
-219 -152 -313 90 -139 311 58 272 242 -5 24 -16 49 -24 56 -8 6 -14 15 -14
20 0 7 -135 232 -215 359 -12 19 -36 58 -53 87 l-31 52 137 116 c75 64 148
126 162 139 14 12 65 55 115 96 49 41 96 82 105 90 49 48 112 92 119 84 10
-10 160 -253 203 -329 16 -27 39 -66 53 -86 l24 -36 -39 -13 c-21 -7 -55 -26
-74 -42 -46 -38 -96 -139 -96 -193 0 -58 34 -107 83 -119 106 -27 232 130 214
266 -3 23 -25 73 -53 117 -26 42 -55 90 -64 106 -9 17 -86 143 -170 280 -84
138 -161 264 -170 280 -40 71 -82 135 -88 135 -4 0 -23 -14 -42 -31z m114
-156 l39 -67 -40 -35 c-22 -20 -51 -45 -64 -56 -46 -39 -235 -198 -284 -240
-170 -146 -241 -203 -247 -199 -4 3 -24 32 -43 66 -30 50 -34 63 -23 73 19 18
226 194 282 240 27 22 54 45 60 50 6 6 54 46 106 90 52 44 111 94 130 112 19
18 37 33 40 33 3 -1 22 -31 44 -67z"/>
<path d="M5664 5879 c-85 -53 -159 -151 -203 -271 -6 -16 -20 -29 -33 -32
-189 -39 -263 -70 -333 -140 -97 -97 -114 -249 -40 -365 22 -36 89 -101 103
-101 27 -1 32 -17 18 -57 -51 -145 -102 -201 -173 -190 -41 7 -78 29 -92 56
-10 18 -8 19 29 14 32 -5 42 -1 62 20 31 33 34 77 7 111 -33 42 -104 34 -134
-17 -42 -71 -11 -162 69 -198 109 -49 171 -12 236 140 l40 97 53 0 c86 0 148
43 187 129 38 83 22 165 -44 223 l-37 33 26 69 c24 64 29 70 61 76 18 3 36 6
39 5 13 -3 123 60 149 85 42 42 102 138 120 192 17 51 23 122 12 140 -13 22
-71 13 -122 -19z m61 -92 c58 -43 -83 -173 -210 -194 -35 -6 -35 -6 -25 22 23
61 79 124 143 161 48 27 66 29 92 11z m-346 -379 c-27 -70 -25 -68 -67 -68
-128 -1 -222 -140 -162 -239 25 -40 33 -37 20 10 -14 47 -4 84 32 114 20 17
41 25 69 25 21 0 39 -3 39 -6 0 -5 -101 -256 -106 -262 -1 -2 -19 6 -41 16
-163 84 -167 295 -6 388 39 23 192 72 230 74 9 0 7 -15 -8 -52z m-5 -211 c24
-32 29 -102 11 -137 -22 -42 -64 -78 -100 -84 -20 -4 -39 -5 -44 -2 -11 7 90
257 103 253 5 -2 19 -15 30 -30z"/>
<path d="M4462 5797 c42 -74 134 -223 142 -228 5 -4 -1 -12 -13 -18 -32 -18
-54 -57 -47 -86 15 -59 104 -4 91 57 -7 32 -166 297 -178 298 -4 0 -2 -10 5
-23z"/>
<path d="M2063 5693 c3 -5 37 -62 77 -128 l72 -119 -26 -21 c-16 -13 -29 -35
-32 -57 -5 -30 -3 -37 14 -43 29 -9 57 9 72 44 13 32 9 41 -88 202 -15 25 -38
64 -51 87 -14 23 -29 42 -33 42 -5 0 -7 -3 -5 -7z"/>
<path d="M123 5083 c3 -5 37 -61 76 -126 39 -65 71 -122 71 -127 0 -6 -6 -10
-14 -10 -17 0 -46 -43 -46 -68 0 -41 45 -55 74 -23 30 33 29 69 -2 120 -86
137 -93 151 -77 157 26 10 66 -6 97 -39 l30 -32 -16 33 c-10 18 -31 39 -49 47
-18 7 -50 21 -72 31 -22 9 -44 23 -48 30 -4 8 -13 14 -18 14 -6 0 -8 -3 -6 -7z"/>
<path d="M6055 4889 c4 -12 20 -65 35 -118 16 -53 40 -134 54 -181 14 -47 26
-88 26 -92 0 -5 -12 -8 -26 -8 -37 0 -94 -59 -94 -97 0 -16 5 -34 12 -41 36
-36 122 12 134 73 6 32 -13 111 -67 279 -10 33 -19 61 -19 63 0 7 63 -8 90
-22 41 -21 63 -63 70 -135 l7 -65 1 65 c1 91 -17 124 -105 185 -39 27 -79 65
-89 83 -21 36 -39 43 -29 11z"/>
<path d="M3118 4815 c-2 -1 -39 -6 -83 -9 -90 -8 -128 -13 -200 -26 -27 -5
-61 -12 -75 -14 -22 -4 -44 -9 -130 -30 -206 -51 -356 -109 -570 -218 -552
-283 -1007 -766 -1261 -1340 -101 -226 -189 -529 -214 -733 -4 -27 -8 -57 -10
-65 -25 -95 -25 -583 0 -735 5 -30 13 -78 21 -125 5 -25 33 -162 39 -190 13
-57 68 -232 97 -311 20 -51 38 -123 42 -159 3 -36 9 -96 12 -135 4 -38 8 -77
10 -85 1 -8 3 -20 3 -27 2 -21 180 -97 259 -109 21 -3 39 -8 41 -10 2 -2 13 4
23 13 22 20 48 26 48 11 0 -6 7 -8 15 -4 10 3 16 -1 17 -12 0 -9 2 -21 3 -27
2 -5 3 -17 4 -26 1 -14 32 -32 51 -31 47 3 149 14 160 17 8 2 58 7 110 11 52
4 104 8 115 10 11 1 26 3 33 3 14 1 12 73 -2 183 -4 28 -11 103 -21 213 -1 17
-6 59 -10 95 -3 36 -8 88 -11 115 -2 28 -6 70 -9 95 -3 25 -8 68 -10 95 -9 95
-16 158 -20 189 -2 17 -7 66 -10 108 -4 43 -8 90 -10 105 -2 16 -6 60 -10 98
-3 39 -8 86 -10 105 -2 19 -6 64 -10 100 -3 36 -8 81 -10 100 -2 19 -7 67 -10
105 -3 39 -8 81 -10 95 -2 14 -7 61 -10 105 -4 44 -9 87 -10 97 -2 9 -6 51
-10 95 -3 43 -8 87 -10 98 -2 11 -4 35 -4 53 -1 34 -1 34 -43 28 -24 -3 -78
-8 -121 -11 -43 -4 -86 -8 -95 -10 -10 -1 -51 -6 -92 -10 -105 -9 -111 -11
-106 -43 12 -74 17 -163 10 -161 -25 4 -44 -3 -44 -16 0 -8 -4 -16 -10 -16 -5
-1 -16 -2 -22 -3 -7 -1 -20 7 -29 18 -17 19 -17 19 -67 -2 -28 -12 -53 -22
-56 -22 -2 0 -1 15 4 33 5 17 11 46 14 62 31 186 111 416 221 640 46 94 91
179 99 190 8 11 45 65 81 119 122 183 314 393 490 538 172 142 438 302 625
378 30 12 69 28 85 35 76 33 344 107 430 120 23 3 50 7 61 9 12 2 44 7 72 10
29 3 75 9 103 12 106 12 452 4 509 -11 8 -2 35 -7 60 -9 25 -3 68 -10 95 -16
28 -6 64 -13 80 -16 47 -10 233 -64 294 -86 291 -105 602 -294 830 -503 399
-366 683 -873 786 -1405 8 -41 17 -85 19 -98 6 -28 -1 -28 -62 3 -59 30 -79
31 -86 7 -8 -23 -50 -22 -54 0 -4 19 -29 31 -44 22 -10 -6 -5 103 6 163 7 32
7 32 -139 48 -33 3 -76 8 -95 10 -19 3 -57 7 -85 10 -27 3 -66 8 -86 11 -49 7
-47 13 -64 -146 -3 -30 -7 -68 -9 -85 -2 -16 -7 -59 -11 -95 -4 -36 -8 -76
-10 -90 -2 -14 -6 -52 -10 -85 -3 -33 -12 -112 -20 -175 -7 -63 -16 -142 -20
-175 -3 -33 -8 -78 -11 -100 -5 -46 -10 -85 -19 -170 -3 -33 -8 -71 -10 -85
-2 -14 -7 -56 -11 -95 -3 -38 -8 -77 -9 -85 -2 -8 -6 -46 -10 -85 -4 -38 -9
-77 -10 -85 -2 -8 -6 -44 -9 -80 -7 -63 -11 -99 -21 -177 -2 -21 -7 -63 -10
-93 -3 -30 -10 -89 -15 -130 -12 -96 -22 -189 -24 -215 -1 -13 6 -20 19 -21
11 -1 38 -4 60 -8 22 -3 65 -8 95 -11 30 -3 102 -12 160 -19 58 -7 108 -12
111 -10 4 2 10 24 13 48 6 40 10 44 39 49 18 2 38 0 45 -5 6 -6 12 -7 12 -2 0
5 4 2 10 -6 8 -13 19 -12 89 2 85 18 240 83 242 102 0 6 2 18 4 27 1 10 6 51
9 92 10 110 13 124 55 222 80 188 166 494 186 665 4 30 8 57 10 60 10 16 20
208 20 380 0 172 -7 306 -20 381 -2 13 -11 65 -20 116 -14 85 -42 203 -78 331
-25 88 -96 268 -152 385 -91 193 -213 387 -354 562 -83 103 -294 315 -391 391
-41 32 -77 62 -80 65 -20 23 -331 219 -349 219 -5 0 -19 8 -32 18 -31 24 -258
121 -379 162 -129 44 -304 86 -435 104 -60 9 -126 19 -145 22 -35 6 -426 14
-432 9z"/>
<path d="M2120 4093 c-1 -10 -1 -191 0 -402 0 -344 -1 -382 -15 -371 -11 9
-33 11 -71 7 -105 -11 -201 -99 -188 -173 5 -32 45 -73 72 -75 67 -4 119 13
170 56 67 56 65 44 66 523 1 239 -1 437 -4 440 -11 15 -30 11 -30 -5z"/>
<path d="M3160 4067 c0 -2 63 -219 99 -342 12 -38 21 -71 21 -71 0 -1 -15 -5
-33 -8 -58 -11 -104 -79 -84 -123 5 -12 17 -23 27 -26 45 -12 120 54 120 105
0 12 -20 90 -45 172 -25 82 -45 151 -45 153 0 8 65 -9 89 -23 50 -30 66 -63
66 -136 0 -73 10 -84 14 -17 6 105 -17 144 -125 217 -38 25 -66 53 -74 71 -7
17 -16 31 -21 31 -5 0 -9 -1 -9 -3z"/>
<path d="M4949 3700 c-43 -23 -91 -75 -119 -130 -11 -22 -24 -40 -28 -41 -171
-17 -264 -77 -287 -186 -12 -59 32 -157 82 -184 l22 -12 -25 -47 c-34 -65 -60
-90 -93 -90 -15 0 -37 9 -49 20 -27 26 -30 45 -4 31 38 -20 79 37 54 76 -9 15
-54 25 -68 16 -17 -12 -34 -49 -34 -75 1 -27 15 -47 50 -71 56 -39 113 -11
154 77 24 50 27 53 66 54 54 2 93 26 118 71 27 48 23 104 -10 139 l-26 27 19
43 c10 23 24 42 31 43 36 2 74 12 98 24 42 22 107 101 123 150 28 81 1 105
-74 65z m48 -66 c7 -21 -47 -72 -94 -88 -89 -30 -95 -17 -25 53 39 39 54 48
82 47 18 -1 35 -6 37 -12z m-244 -218 c-13 -29 -20 -33 -52 -33 -46 0 -85 -25
-101 -62 -13 -33 -10 -83 6 -88 7 -2 9 8 6 26 -3 20 2 35 17 50 21 21 71 29
71 12 0 -21 -73 -151 -85 -151 -20 0 -72 64 -80 98 -13 63 15 119 75 148 37
19 140 43 152 37 4 -2 0 -19 -9 -37z m-6 -133 c9 -39 7 -58 -12 -87 -16 -24
-70 -48 -87 -39 -10 5 66 153 79 153 7 0 16 -12 20 -27z"/>
<path d="M3409 3225 c-60 -31 -113 -94 -140 -164 -44 -117 -8 -278 87 -390 34
-39 36 -45 24 -65 -84 -131 -104 -227 -75 -361 11 -50 76 -137 127 -168 64
-39 143 -41 209 -3 l46 26 48 -27 c37 -20 62 -27 102 -26 86 1 123 48 118 148
l-3 60 48 47 c58 56 77 89 85 152 12 83 -37 152 -130 187 -64 24 -75 20 -97
-39 -23 -61 -77 -121 -138 -152 -45 -23 -55 -20 -65 22 -6 24 -2 29 32 46 144
74 146 261 3 353 -28 18 -50 33 -50 35 0 1 6 16 13 33 l13 30 41 -20 c70 -34
153 -134 153 -183 0 -18 12 -26 48 -32 243 -40 336 -290 173 -467 -34 -36 -41
-51 -41 -84 0 -50 -24 -109 -57 -145 l-26 -27 17 -45 c20 -53 67 -106 116
-132 53 -28 166 -24 252 9 l67 26 -8 -22 c-5 -12 -9 -50 -9 -84 0 -116 74
-186 190 -182 104 4 197 74 251 188 27 57 31 79 35 170 9 244 -83 420 -266
508 l-77 37 2 88 c2 105 -13 159 -64 218 -21 24 -59 53 -87 66 -43 20 -62 23
-138 20 l-87 -4 1 42 c2 104 -53 206 -134 247 -55 28 -148 28 -224 -1 -27 -11
-64 -5 -64 9 0 4 -30 23 -67 42 -89 45 -183 50 -254 14z"/>
<path d="M2889 3219 c-57 -9 -118 -39 -169 -85 l-40 -36 -62 11 c-194 32 -308
-60 -308 -252 l0 -75 -87 -4 c-96 -5 -132 -18 -182 -69 -57 -57 -75 -104 -76
-199 0 -47 4 -99 8 -116 8 -30 6 -33 -47 -62 -106 -60 -175 -143 -215 -257
-78 -223 -11 -490 147 -582 38 -23 60 -28 122 -30 89 -2 143 19 178 71 34 50
36 108 7 202 -7 21 -6 21 47 7 83 -23 195 -20 245 5 53 28 96 80 117 143 l16
50 -29 28 c-37 36 -67 96 -69 140 -2 27 -15 45 -61 90 -67 65 -93 127 -90 214
5 121 100 229 222 252 34 7 38 12 51 55 8 26 21 60 29 76 20 37 83 101 117
119 26 13 27 13 43 -20 16 -33 15 -34 -9 -50 -46 -30 -83 -77 -99 -126 -35
-104 7 -193 113 -241 41 -18 43 -21 36 -51 -3 -18 -8 -34 -10 -36 -2 -2 -28 7
-59 19 -63 25 -139 102 -150 149 -9 42 -31 45 -94 14 -95 -48 -132 -121 -109
-213 11 -44 79 -126 122 -149 23 -13 26 -21 26 -65 0 -61 31 -129 66 -144 53
-25 127 -9 188 39 28 22 29 22 60 4 46 -27 143 -29 191 -4 121 65 175 232 126
387 -13 39 -41 93 -66 127 -24 32 -41 63 -37 69 3 6 19 30 34 53 44 65 70 148
70 228 1 202 -137 340 -313 314z"/>
<path d="M3625 1983 c-48 -13 -136 -13 -181 2 -18 6 -24 -1 -43 -45 -68 -157
-26 -362 100 -495 27 -29 49 -55 49 -59 0 -4 -12 -19 -26 -34 -34 -37 -90
-138 -103 -189 -12 -45 -15 -141 -6 -186 11 -53 38 -112 82 -175 l43 -63 -29
-62 c-52 -111 -68 -213 -50 -332 18 -119 101 -240 196 -286 65 -31 160 -23
235 19 59 34 137 111 182 179 28 42 29 42 86 42 81 -1 123 15 168 67 89 100
79 226 -26 332 -100 102 -254 145 -367 102 -46 -17 -94 -70 -106 -115 -6 -22
-12 -47 -15 -56 -4 -13 8 -19 54 -28 54 -10 141 -55 156 -79 4 -6 -6 -22 -20
-36 l-27 -25 -31 23 c-97 73 -243 47 -277 -49 -12 -32 -16 -35 -49 -32 -31 2
-35 5 -32 27 7 51 82 139 130 154 15 5 21 19 26 62 15 127 105 219 234 240 23
4 42 10 42 14 0 4 -7 27 -15 50 -33 93 -11 206 51 267 31 31 32 36 33 105 0
40 1 84 3 97 2 19 -6 31 -39 54 -48 34 -101 41 -153 19 -57 -23 -66 -36 -64
-91 3 -67 -22 -142 -67 -196 l-37 -45 -26 30 -25 30 24 26 c63 67 74 160 30
249 -14 30 -30 55 -33 55 -4 0 -21 13 -39 28 -31 26 -32 28 -18 60 l15 33 31
-18 c17 -10 51 -40 76 -67 l44 -49 37 17 c44 21 118 31 166 22 20 -4 58 -22
86 -41 l51 -34 44 33 c24 19 68 42 97 51 68 22 71 24 60 38 -15 18 -41 114
-34 122 4 4 -11 3 -33 -1 -167 -31 -296 28 -371 170 l-27 53 -61 0 c-34 0 -78
8 -100 17 -21 9 -41 15 -45 15 -3 -1 -28 -8 -56 -16z"/>
<path d="M3072 1959 c-36 -14 -107 -17 -163 -7 -43 8 -57 6 -94 -12 -24 -12
-69 -24 -99 -27 -54 -6 -54 -6 -72 -52 -51 -138 -160 -213 -305 -212 -61 0
-78 -3 -83 -15 -3 -9 -4 -19 -1 -24 3 -4 -2 -30 -10 -56 -8 -27 -15 -50 -15
-50 0 -1 21 -5 46 -9 25 -3 75 -22 112 -41 l66 -35 24 27 c33 35 118 74 163
74 19 0 59 -7 88 -16 29 -8 54 -14 55 -12 8 13 62 85 71 93 15 16 58 45 66 45
4 0 12 -14 20 -31 12 -30 11 -33 -14 -51 -43 -32 -79 -101 -82 -161 -4 -68 15
-121 59 -166 34 -35 35 -36 18 -63 -9 -16 -22 -28 -28 -28 -22 0 -92 90 -108
137 -9 26 -16 64 -16 84 0 56 -39 86 -125 94 -27 3 -88 -28 -114 -56 -29 -31
-29 -32 -14 -73 8 -22 15 -63 15 -90 1 -44 6 -53 39 -83 54 -49 80 -109 81
-185 0 -35 -5 -76 -11 -91 -6 -16 -11 -30 -11 -31 0 -2 24 -7 53 -10 65 -8
142 -43 181 -82 35 -35 76 -119 76 -156 0 -23 8 -31 43 -47 48 -22 111 -84
126 -123 11 -29 9 -32 -30 -41 -22 -6 -30 -1 -50 31 -57 88 -179 100 -275 27
-40 -31 -45 -31 -73 -1 l-22 23 39 32 c44 34 117 70 144 71 28 0 30 17 8 67
-27 62 -46 81 -102 108 -127 59 -348 -42 -418 -193 -55 -116 -12 -250 95 -302
48 -23 130 -29 162 -11 15 8 23 3 43 -26 36 -53 145 -148 198 -174 70 -34 162
-35 229 -3 147 70 226 281 178 469 -16 62 -48 134 -86 195 l-22 35 32 50 c46
73 72 166 70 249 -4 112 -38 192 -123 283 l-55 59 39 49 c117 148 143 331 70
493 -30 65 -40 71 -88 51z"/>
<path d="M4710 1537 c-47 -22 -84 -24 -290 -17 -76 3 -90 1 -135 -23 -64 -33
-87 -53 -112 -97 -25 -42 -22 -98 8 -148 21 -36 25 -57 8 -47 -5 4 -28 -5 -50
-20 -80 -53 -101 -170 -46 -254 20 -30 41 -44 97 -67 96 -39 173 -101 222
-181 47 -73 55 -75 138 -25 104 64 126 206 52 345 -14 26 -29 47 -34 47 -5 0
-6 5 -3 10 3 6 16 10 28 10 37 0 120 45 161 86 94 94 120 233 64 345 -33 66
-40 68 -108 36z"/>
<path d="M1789 1375 c-30 -67 -34 -132 -15 -199 10 -32 21 -63 26 -70 6 -6 22
-26 36 -44 48 -59 130 -105 207 -115 33 -4 33 -2 0 -74 -44 -100 -31 -225 30
-292 23 -25 91 -59 132 -67 20 -4 38 8 40 26 1 3 13 28 27 55 36 70 109 139
193 185 81 45 110 86 114 161 4 87 -48 163 -121 175 -43 7 -43 7 -24 37 41 64
26 148 -34 200 -77 66 -178 81 -306 48 -73 -19 -177 -20 -212 -3 -9 5 -30 12
-45 16 -26 6 -29 3 -48 -39z"/>
</g>
</svg>
